{
    "asset" : {
        "generator" : "Khronos glTF Blender I/O v3.4.50",
        "version" : "2.0"
    },
    "scene" : 0,
    "scenes" : [
        {
            "name" : "Scene",
            "nodes" : [
                0
            ]
        }
    ],
    "nodes" : [
        {
            "mesh" : 0,
            "name" : "Curve",
            "scale" : [
                68.76686096191406,
                68.76686096191406,
                68.76686096191406
            ],
            "translation" : [
                0.03784603625535965,
                -0.03865441679954529,
                0.05423782020807266
            ]
        }
    ],
    "materials" : [
        {
            "doubleSided" : true,
            "name" : "SVGMat.003",
            "pbrMetallicRoughness" : {
                "baseColorFactor" : [
                    0.7940179109573364,
                    0.03642439469695091,
                    0.044469159096479416,
                    1
                ],
                "metallicFactor" : 0,
                "roughnessFactor" : 0.4000000059604645
            }
        }
    ],
    "meshes" : [
        {
            "name" : "Curve.027",
            "primitives" : [
                {
                    "attributes" : {
                        "POSITION" : 0,
                        "NORMAL" : 1
                    },
                    "indices" : 2,
                    "material" : 0
                }
            ]
        }
    ],
    "accessors" : [
        {
            "bufferView" : 0,
            "componentType" : 5126,
            "count" : 106893,
            "max" : [
                0.04140924662351608,
                0.007285039871931076,
                0.026301557198166847
            ],
            "min" : [
                -0.052707090973854065,
                -4.470348358154297e-08,
                -0.022517520934343338
            ],
            "type" : "VEC3"
        },
        {
            "bufferView" : 1,
            "componentType" : 5126,
            "count" : 106893,
            "type" : "VEC3"
        },
        {
            "bufferView" : 2,
            "componentType" : 5125,
            "count" : 198228,
            "type" : "SCALAR"
        }
    ],
    "bufferViews" : [
        {
            "buffer" : 0,
            "byteLength" : 1282716,
            "byteOffset" : 0,
            "target" : 34962
        },
        {
            "buffer" : 0,
            "byteLength" : 1282716,
            "byteOffset" : 1282716,
            "target" : 34962
        },
        {
            "buffer" : 0,
            "byteLength" : 792912,
            "byteOffset" : 2565432,
            "target" : 34963
        }
    ],
    "buffers" : [
        {
            "byteLength" : 3358344,
            "uri" : "logo1.bin"
        }
    ]
}
